G04 #@! TF.FileFunction,Legend,Bot*
%FSLAX46Y46*%
G04 Gerber Fmt 4.6, Leading zero omitted, Abs format (unit mm)*
G04 Created by KiCad (PCBNEW 4.0.0-2.201511301921+6191~38~ubuntu15.10.1-stable) date Wed 09 Dec 2015 16:00:35 GMT*
%MOMM*%
G01*
G04 APERTURE LIST*
%ADD10C,0.100000*%
%ADD11C,0.300000*%
G04 APERTURE END LIST*
D10*
D11*
X148252571Y-105700571D02*
X147538286Y-105200571D01*
X148252571Y-104843428D02*
X146752571Y-104843428D01*
X146752571Y-105414856D01*
X146824000Y-105557714D01*
X146895429Y-105629142D01*
X147038286Y-105700571D01*
X147252571Y-105700571D01*
X147395429Y-105629142D01*
X147466857Y-105557714D01*
X147538286Y-105414856D01*
X147538286Y-104843428D01*
X147252571Y-106343428D02*
X148752571Y-106343428D01*
X147324000Y-106343428D02*
X147252571Y-106486285D01*
X147252571Y-106771999D01*
X147324000Y-106914856D01*
X147395429Y-106986285D01*
X147538286Y-107057714D01*
X147966857Y-107057714D01*
X148109714Y-106986285D01*
X148181143Y-106914856D01*
X148252571Y-106771999D01*
X148252571Y-106486285D01*
X148181143Y-106343428D01*
X148252571Y-107700571D02*
X147252571Y-107700571D01*
X146752571Y-107700571D02*
X146824000Y-107629142D01*
X146895429Y-107700571D01*
X146824000Y-107771999D01*
X146752571Y-107700571D01*
X146895429Y-107700571D01*
X148395429Y-108057714D02*
X148395429Y-109200571D01*
X148252571Y-109772000D02*
X148181143Y-109629142D01*
X148109714Y-109557714D01*
X147966857Y-109486285D01*
X147538286Y-109486285D01*
X147395429Y-109557714D01*
X147324000Y-109629142D01*
X147252571Y-109772000D01*
X147252571Y-109986285D01*
X147324000Y-110129142D01*
X147395429Y-110200571D01*
X147538286Y-110272000D01*
X147966857Y-110272000D01*
X148109714Y-110200571D01*
X148181143Y-110129142D01*
X148252571Y-109986285D01*
X148252571Y-109772000D01*
X147252571Y-110700571D02*
X147252571Y-111272000D01*
X148252571Y-110914857D02*
X146966857Y-110914857D01*
X146824000Y-110986285D01*
X146752571Y-111129143D01*
X146752571Y-111272000D01*
X147252571Y-111557714D02*
X147252571Y-112129143D01*
X148252571Y-111772000D02*
X146966857Y-111772000D01*
X146824000Y-111843428D01*
X146752571Y-111986286D01*
X146752571Y-112129143D01*
X148395429Y-112272000D02*
X148395429Y-113414857D01*
X148252571Y-113772000D02*
X146752571Y-113772000D01*
X147324000Y-113772000D02*
X147252571Y-113914857D01*
X147252571Y-114200571D01*
X147324000Y-114343428D01*
X147395429Y-114414857D01*
X147538286Y-114486286D01*
X147966857Y-114486286D01*
X148109714Y-114414857D01*
X148181143Y-114343428D01*
X148252571Y-114200571D01*
X148252571Y-113914857D01*
X148181143Y-113772000D01*
X147252571Y-115772000D02*
X148252571Y-115772000D01*
X147252571Y-115129143D02*
X148038286Y-115129143D01*
X148181143Y-115200571D01*
X148252571Y-115343429D01*
X148252571Y-115557714D01*
X148181143Y-115700571D01*
X148109714Y-115772000D01*
X147252571Y-116272000D02*
X147252571Y-116843429D01*
X146752571Y-116486286D02*
X148038286Y-116486286D01*
X148181143Y-116557714D01*
X148252571Y-116700572D01*
X148252571Y-116843429D01*
X147252571Y-117129143D02*
X147252571Y-117700572D01*
X146752571Y-117343429D02*
X148038286Y-117343429D01*
X148181143Y-117414857D01*
X148252571Y-117557715D01*
X148252571Y-117700572D01*
X148252571Y-118414858D02*
X148181143Y-118272000D01*
X148109714Y-118200572D01*
X147966857Y-118129143D01*
X147538286Y-118129143D01*
X147395429Y-118200572D01*
X147324000Y-118272000D01*
X147252571Y-118414858D01*
X147252571Y-118629143D01*
X147324000Y-118772000D01*
X147395429Y-118843429D01*
X147538286Y-118914858D01*
X147966857Y-118914858D01*
X148109714Y-118843429D01*
X148181143Y-118772000D01*
X148252571Y-118629143D01*
X148252571Y-118414858D01*
X147252571Y-119557715D02*
X148252571Y-119557715D01*
X147395429Y-119557715D02*
X147324000Y-119629143D01*
X147252571Y-119772001D01*
X147252571Y-119986286D01*
X147324000Y-120129143D01*
X147466857Y-120200572D01*
X148252571Y-120200572D01*
X150768857Y-112479144D02*
X150768857Y-111979144D01*
X151554571Y-111979144D02*
X150054571Y-111979144D01*
X150054571Y-112693430D01*
X151554571Y-113907715D02*
X150768857Y-113907715D01*
X150626000Y-113836286D01*
X150554571Y-113693429D01*
X150554571Y-113407715D01*
X150626000Y-113264858D01*
X151483143Y-113907715D02*
X151554571Y-113764858D01*
X151554571Y-113407715D01*
X151483143Y-113264858D01*
X151340286Y-113193429D01*
X151197429Y-113193429D01*
X151054571Y-113264858D01*
X150983143Y-113407715D01*
X150983143Y-113764858D01*
X150911714Y-113907715D01*
X151483143Y-115264858D02*
X151554571Y-115122001D01*
X151554571Y-114836287D01*
X151483143Y-114693429D01*
X151411714Y-114622001D01*
X151268857Y-114550572D01*
X150840286Y-114550572D01*
X150697429Y-114622001D01*
X150626000Y-114693429D01*
X150554571Y-114836287D01*
X150554571Y-115122001D01*
X150626000Y-115264858D01*
X151483143Y-116479143D02*
X151554571Y-116336286D01*
X151554571Y-116050572D01*
X151483143Y-115907715D01*
X151340286Y-115836286D01*
X150768857Y-115836286D01*
X150626000Y-115907715D01*
X150554571Y-116050572D01*
X150554571Y-116336286D01*
X150626000Y-116479143D01*
X150768857Y-116550572D01*
X150911714Y-116550572D01*
X151054571Y-115836286D01*
X151554571Y-117407715D02*
X151483143Y-117264857D01*
X151340286Y-117193429D01*
X150054571Y-117193429D01*
X151483143Y-118550571D02*
X151554571Y-118407714D01*
X151554571Y-118122000D01*
X151483143Y-117979143D01*
X151340286Y-117907714D01*
X150768857Y-117907714D01*
X150626000Y-117979143D01*
X150554571Y-118122000D01*
X150554571Y-118407714D01*
X150626000Y-118550571D01*
X150768857Y-118622000D01*
X150911714Y-118622000D01*
X151054571Y-117907714D01*
X151483143Y-119193428D02*
X151554571Y-119336285D01*
X151554571Y-119622000D01*
X151483143Y-119764857D01*
X151340286Y-119836285D01*
X151268857Y-119836285D01*
X151126000Y-119764857D01*
X151054571Y-119622000D01*
X151054571Y-119407714D01*
X150983143Y-119264857D01*
X150840286Y-119193428D01*
X150768857Y-119193428D01*
X150626000Y-119264857D01*
X150554571Y-119407714D01*
X150554571Y-119622000D01*
X150626000Y-119764857D01*
X151483143Y-120407714D02*
X151554571Y-120550571D01*
X151554571Y-120836286D01*
X151483143Y-120979143D01*
X151340286Y-121050571D01*
X151268857Y-121050571D01*
X151126000Y-120979143D01*
X151054571Y-120836286D01*
X151054571Y-120622000D01*
X150983143Y-120479143D01*
X150840286Y-120407714D01*
X150768857Y-120407714D01*
X150626000Y-120479143D01*
X150554571Y-120622000D01*
X150554571Y-120836286D01*
X150626000Y-120979143D01*
X150554571Y-121479143D02*
X150554571Y-122050572D01*
X150054571Y-121693429D02*
X151340286Y-121693429D01*
X151483143Y-121764857D01*
X151554571Y-121907715D01*
X151554571Y-122050572D01*
X151483143Y-123122000D02*
X151554571Y-122979143D01*
X151554571Y-122693429D01*
X151483143Y-122550572D01*
X151340286Y-122479143D01*
X150768857Y-122479143D01*
X150626000Y-122550572D01*
X150554571Y-122693429D01*
X150554571Y-122979143D01*
X150626000Y-123122000D01*
X150768857Y-123193429D01*
X150911714Y-123193429D01*
X151054571Y-122479143D01*
X151483143Y-124479143D02*
X151554571Y-124336286D01*
X151554571Y-124050572D01*
X151483143Y-123907714D01*
X151411714Y-123836286D01*
X151268857Y-123764857D01*
X150840286Y-123764857D01*
X150697429Y-123836286D01*
X150626000Y-123907714D01*
X150554571Y-124050572D01*
X150554571Y-124336286D01*
X150626000Y-124479143D01*
X151554571Y-125122000D02*
X150054571Y-125122000D01*
X151554571Y-125764857D02*
X150768857Y-125764857D01*
X150626000Y-125693428D01*
X150554571Y-125550571D01*
X150554571Y-125336286D01*
X150626000Y-125193428D01*
X150697429Y-125122000D01*
M02*
