G04 #@! TF.FileFunction,Legend,Top*
%FSLAX46Y46*%
G04 Gerber Fmt 4.6, Leading zero omitted, Abs format (unit mm)*
G04 Created by KiCad (PCBNEW 4.0.0-2.201511301921+6191~38~ubuntu15.10.1-stable) date Wed 09 Dec 2015 16:00:35 GMT*
%MOMM*%
G01*
G04 APERTURE LIST*
%ADD10C,0.100000*%
%ADD11C,0.150000*%
G04 APERTURE END LIST*
D10*
D11*
X148693715Y-129794000D02*
G75*
G03X148693715Y-129794000I-1373715J0D01*
G01*
X144272000Y-126746000D02*
X150368000Y-126746000D01*
X150368000Y-126746000D02*
X150368000Y-132842000D01*
X150368000Y-132842000D02*
X144272000Y-132842000D01*
X144272000Y-132842000D02*
X144272000Y-126746000D01*
X146558000Y-106426000D02*
X146558000Y-111506000D01*
X146558000Y-111506000D02*
X144018000Y-111506000D01*
X144018000Y-111506000D02*
X144018000Y-106426000D01*
X144018000Y-106426000D02*
X146558000Y-106426000D01*
X148335096Y-106227112D02*
G75*
G03X151360000Y-106212000I1524904J-2484888D01*
G01*
X148360000Y-106212000D02*
X151360000Y-106212000D01*
X152377936Y-108712000D02*
G75*
G03X152377936Y-108712000I-2517936J0D01*
G01*
X147320000Y-117602000D02*
X147320000Y-122682000D01*
X147320000Y-122682000D02*
X144780000Y-122682000D01*
X144780000Y-122682000D02*
X144780000Y-117602000D01*
X144780000Y-117602000D02*
X147320000Y-117602000D01*
X147828000Y-122682000D02*
X147828000Y-117602000D01*
X147828000Y-117602000D02*
X150368000Y-117602000D01*
X150368000Y-117602000D02*
X150368000Y-122682000D01*
X150368000Y-122682000D02*
X147828000Y-122682000D01*
X144835619Y-110102495D02*
X144788000Y-110054876D01*
X144740381Y-109959638D01*
X144740381Y-109721542D01*
X144788000Y-109626304D01*
X144835619Y-109578685D01*
X144930857Y-109531066D01*
X145026095Y-109531066D01*
X145168952Y-109578685D01*
X145740381Y-110150114D01*
X145740381Y-109531066D01*
X144835619Y-109150114D02*
X144788000Y-109102495D01*
X144740381Y-109007257D01*
X144740381Y-108769161D01*
X144788000Y-108673923D01*
X144835619Y-108626304D01*
X144930857Y-108578685D01*
X145026095Y-108578685D01*
X145168952Y-108626304D01*
X145740381Y-109197733D01*
X145740381Y-108578685D01*
X144740381Y-107959638D02*
X144740381Y-107864399D01*
X144788000Y-107769161D01*
X144835619Y-107721542D01*
X144930857Y-107673923D01*
X145121333Y-107626304D01*
X145359429Y-107626304D01*
X145549905Y-107673923D01*
X145645143Y-107721542D01*
X145692762Y-107769161D01*
X145740381Y-107864399D01*
X145740381Y-107959638D01*
X145692762Y-108054876D01*
X145645143Y-108102495D01*
X145549905Y-108150114D01*
X145359429Y-108197733D01*
X145121333Y-108197733D01*
X144930857Y-108150114D01*
X144835619Y-108102495D01*
X144788000Y-108054876D01*
X144740381Y-107959638D01*
X149550381Y-120737238D02*
X149550381Y-121308667D01*
X149550381Y-121022953D02*
X148550381Y-121022953D01*
X148693238Y-121118191D01*
X148788476Y-121213429D01*
X148836095Y-121308667D01*
X149550381Y-120308667D02*
X148550381Y-120308667D01*
X149169429Y-120213429D02*
X149550381Y-119927714D01*
X148883714Y-119927714D02*
X149264667Y-120308667D01*
X149550381Y-118975333D02*
X149550381Y-119546762D01*
X149550381Y-119261048D02*
X148550381Y-119261048D01*
X148693238Y-119356286D01*
X148788476Y-119451524D01*
X148836095Y-119546762D01*
X146502381Y-120959428D02*
X146502381Y-121530857D01*
X146502381Y-121245143D02*
X145502381Y-121245143D01*
X145645238Y-121340381D01*
X145740476Y-121435619D01*
X145788095Y-121530857D01*
X145502381Y-120340381D02*
X145502381Y-120245142D01*
X145550000Y-120149904D01*
X145597619Y-120102285D01*
X145692857Y-120054666D01*
X145883333Y-120007047D01*
X146121429Y-120007047D01*
X146311905Y-120054666D01*
X146407143Y-120102285D01*
X146454762Y-120149904D01*
X146502381Y-120245142D01*
X146502381Y-120340381D01*
X146454762Y-120435619D01*
X146407143Y-120483238D01*
X146311905Y-120530857D01*
X146121429Y-120578476D01*
X145883333Y-120578476D01*
X145692857Y-120530857D01*
X145597619Y-120483238D01*
X145550000Y-120435619D01*
X145502381Y-120340381D01*
X146502381Y-119578476D02*
X145502381Y-119578476D01*
X146121429Y-119483238D02*
X146502381Y-119197523D01*
X145835714Y-119197523D02*
X146216667Y-119578476D01*
X146502381Y-118245142D02*
X146502381Y-118816571D01*
X146502381Y-118530857D02*
X145502381Y-118530857D01*
X145645238Y-118626095D01*
X145740476Y-118721333D01*
X145788095Y-118816571D01*
M02*
